<svg width="35" height="35" viewBox="0 0 35 35" fill="none" xmlns="http://www.w3.org/2000/svg">
<path fill-rule="evenodd" clip-rule="evenodd" d="M5.83342 2.91669H29.1668C30.7776 2.91669 32.0834 4.22252 32.0834 5.83335V29.1667C32.0834 30.7775 30.7776 32.0834 29.1668 32.0834H5.83342C4.22258 32.0834 2.91675 30.7775 2.91675 29.1667V5.83335C2.91675 4.22252 4.22258 2.91669 5.83342 2.91669ZM5.83341 5.83335V29.1667H29.1667V5.83335H5.83341ZM16.2358 17.5064H18.9584V26.25H21.8751V17.5064H24.7661V14.5898H21.8751V13.125C21.8751 12.3196 22.528 11.6667 23.3334 11.6667H24.7917V8.75002H23.3334C20.9172 8.75002 18.9584 10.7088 18.9584 13.125V14.5898H16.2358V17.5064Z" fill="#FFAA00"/>
</svg>
