<svg width="37" height="37" viewBox="0 0 37 37" fill="none" xmlns="http://www.w3.org/2000/svg">
<path fill-rule="evenodd" clip-rule="evenodd" d="M18.5001 35.4584C9.13425 35.4584 1.54175 27.8659 1.54175 18.5C1.54175 9.13419 9.13425 1.54169 18.5001 1.54169C27.8659 1.54169 35.4584 9.13419 35.4584 18.5C35.4584 27.8659 27.8659 35.4584 18.5001 35.4584ZM29.9076 26.4005C31.4634 24.1584 32.3751 21.4357 32.3751 18.5C32.3751 10.8371 26.163 4.62502 18.5001 4.62502C10.8371 4.62502 4.62509 10.8371 4.62509 18.5C4.62509 21.4357 5.5368 24.1584 7.09253 26.4005C8.8276 24.1087 12.9048 23.125 18.5001 23.125C24.0954 23.125 28.1726 24.1087 29.9076 26.4005ZM27.6956 28.8905C27.2444 27.268 24.0029 26.2084 18.5001 26.2084C12.9973 26.2084 9.75575 27.268 9.30453 28.8905C11.7527 31.0587 14.9727 32.375 18.5001 32.375C22.0275 32.375 25.2475 31.0587 27.6956 28.8905ZM18.5001 9.25002C14.7679 9.25002 12.3334 11.9568 12.3334 15.4167C12.3334 20.7006 15.0481 23.125 18.5001 23.125C21.9196 23.125 24.6667 20.7811 24.6667 15.725C24.6667 12.2125 22.222 9.25002 18.5001 9.25002ZM15.4167 15.4167C15.4167 18.9151 16.6782 20.0417 18.5001 20.0417C20.3157 20.0417 21.5834 18.96 21.5834 15.725C21.5834 13.7986 20.3742 12.3334 18.5001 12.3334C16.5479 12.3334 15.4167 13.5911 15.4167 15.4167Z" fill="white"/>
</svg>
