<svg width="35" height="35" viewBox="0 0 35 35" fill="none" xmlns="http://www.w3.org/2000/svg">
<path fill-rule="evenodd" clip-rule="evenodd" d="M1.45824 17.4708C1.45824 26.3155 8.64033 33.4856 17.4999 33.4856C26.3594 33.4856 33.5415 26.3155 33.5415 17.4708C33.5415 8.62601 26.3594 1.4559 17.4999 1.4559C8.64033 1.4559 1.45824 8.62601 1.45824 17.4708ZM30.6249 17.4708C30.6249 24.7074 24.7486 30.5739 17.4999 30.5739C10.2512 30.5739 4.3749 24.7074 4.3749 17.4708C4.3749 10.2341 10.2512 4.3677 17.4999 4.3677C24.7486 4.3677 30.6249 10.2341 30.6249 17.4708ZM16.4687 12.6767L18.5311 10.6177L25.3956 17.4708L18.5311 24.3238L16.4687 22.2649L21.2708 17.4708L16.4687 12.6767ZM12.6978 10.6177L10.6354 12.6767L15.4375 17.4708L10.6354 22.2649L12.6978 24.3238L19.5623 17.4708L12.6978 10.6177Z" fill="#B1B1B1"/>
</svg>
