<svg width="35" height="35" viewBox="0 0 35 35" fill="none" xmlns="http://www.w3.org/2000/svg">
<path fill-rule="evenodd" clip-rule="evenodd" d="M30.7994 6.57458L32.8626 6.81553L31.9352 8.67419C31.4829 9.58058 31.0302 10.487 30.577 11.3934C30.5233 11.5853 30.4288 11.7536 30.2892 11.9728C30.2308 12.0643 30.0314 12.3555 30.0221 12.3695C29.9694 12.4485 29.9305 12.5107 29.9025 12.5606V16.0439C29.9025 24.9572 21.2765 30.6213 13.1302 30.6213C11.4633 30.6213 10.1968 30.5414 8.74665 30.2249C6.36009 29.7041 4.58402 28.6689 3.77129 26.8596L2.93456 24.9968L4.96802 24.8098C6.80759 24.6406 8.40254 24.2902 9.62739 23.8209C6.26474 23.2801 4.38033 21.8033 4.38033 19.0296V17.5713H5.83867C6.15908 17.5713 6.448 17.5453 6.70629 17.4976C4.18258 15.9887 2.91853 13.568 2.91853 10.2106C2.91825 10.0675 2.91825 10.0675 2.91739 9.91446C2.90791 8.22214 2.99881 7.31789 3.46209 6.1638C3.759 5.42416 4.18817 4.73943 4.76577 4.11204L5.86624 2.91669L6.93617 4.13945C10.4621 8.16903 13.9475 10.6137 17.5062 10.9094C17.5214 7.19113 20.3315 4.37724 24.0689 4.37724C25.8112 4.37724 27.3917 5.03858 28.6337 6.23108C29.3135 6.37076 30.0354 6.48536 30.7994 6.57458ZM27.5752 8.98629L27.1281 8.88506L26.8194 8.54626C26.0728 7.72707 25.1358 7.29391 24.0689 7.29391C21.9354 7.29391 20.4228 8.81405 20.4228 10.9397C20.4228 11.2871 20.4138 11.5054 20.3705 11.7923C20.1978 12.9371 19.5557 13.8564 18.2352 13.8564C13.8631 13.8564 9.91872 11.5142 6.07242 7.51376C5.87413 8.11653 5.8275 8.73613 5.83401 9.89812C5.83489 10.0535 5.83489 10.0535 5.83519 10.2106C5.83519 13.1973 7.04519 14.8309 9.91013 15.7415L10.9267 16.0647V17.1314C10.9267 18.4249 9.70123 19.6425 7.90815 20.1879C8.73011 20.8115 10.4111 21.1481 13.1308 21.1481H14.5891V22.6064C14.5891 24.6958 12.1883 26.3318 8.56158 27.1861C9.74434 27.5484 11.3192 27.7046 13.1302 27.7046C19.8596 27.7046 26.9858 23.0254 26.9858 16.0439V12.3981C26.9858 11.9696 27.11 11.5978 27.3163 11.2111C27.397 11.0599 27.4858 10.9158 27.5954 10.7514C27.6161 10.7205 27.6926 10.6083 27.7534 10.5187L27.869 10.2875C28.0563 9.91297 28.2435 9.53841 28.4306 9.16385C28.1398 9.10876 27.8547 9.04958 27.5752 8.98629Z" fill="#FFAA00"/>
</svg>
