<svg width="40" height="40" viewBox="0 0 40 40" fill="none" xmlns="http://www.w3.org/2000/svg">
<path fill-rule="evenodd" clip-rule="evenodd" d="M16.6668 24.9584V28.2862H10.0001C5.39775 28.2862 1.66678 24.5614 1.66678 19.9667C1.66678 15.372 5.39775 11.6473 10.0001 11.6473H16.6668V14.975H10.0001C7.2387 14.975 5.00012 17.2099 5.00012 19.9667C5.00012 22.7235 7.2387 24.9584 10.0001 24.9584H16.6668ZM23.3335 14.975V11.6473H30.0002C34.6025 11.6473 38.3335 15.372 38.3335 19.9667C38.3335 24.5614 34.6025 28.2862 30.0002 28.2862H23.3335V24.9584H30.0002C32.7616 24.9584 35.0002 22.7235 35.0002 19.9667C35.0002 17.2099 32.7616 14.975 30.0002 14.975H23.3335ZM11.6668 18.3028V21.6306H28.3335V18.3028H11.6668Z" fill="black"/>
</svg>
