<svg width="35" height="35" viewBox="0 0 35 35" fill="none" xmlns="http://www.w3.org/2000/svg">
<path fill-rule="evenodd" clip-rule="evenodd" d="M23.3334 2.91669H11.6667C6.83426 2.91669 2.91675 6.8342 2.91675 11.6667V23.3334C2.91675 28.1658 6.83426 32.0834 11.6667 32.0834H23.3334C28.1659 32.0834 32.0834 28.1658 32.0834 23.3334V11.6667C32.0834 6.8342 28.1659 2.91669 23.3334 2.91669ZM5.83341 11.6667C5.83341 8.44503 8.44509 5.83335 11.6667 5.83335H23.3334C26.5551 5.83335 29.1667 8.44503 29.1667 11.6667V23.3334C29.1667 26.555 26.5551 29.1667 23.3334 29.1667H11.6667C8.44509 29.1667 5.83341 26.555 5.83341 23.3334V11.6667ZM17.5001 24.7917C13.473 24.7917 10.2084 21.5271 10.2084 17.5C10.2084 13.4729 13.473 10.2084 17.5001 10.2084C21.5272 10.2084 24.7917 13.4729 24.7917 17.5C24.7917 21.5271 21.5272 24.7917 17.5001 24.7917ZM17.5001 21.875C19.9163 21.875 21.8751 19.9163 21.8751 17.5C21.8751 15.0838 19.9163 13.125 17.5001 13.125C15.0838 13.125 13.1251 15.0838 13.1251 17.5C13.1251 19.9163 15.0838 21.875 17.5001 21.875ZM26.2501 10.2084C26.2501 11.0138 25.5972 11.6667 24.7917 11.6667C23.9863 11.6667 23.3334 11.0138 23.3334 10.2084C23.3334 9.40294 23.9863 8.75002 24.7917 8.75002C25.5972 8.75002 26.2501 9.40294 26.2501 10.2084Z" fill="#FFAA00"/>
</svg>
