<svg width="69" height="63" viewBox="0 0 69 63" fill="none" xmlns="http://www.w3.org/2000/svg">
<path fill-rule="evenodd" clip-rule="evenodd" d="M62.7273 56.4545V23.4126C66.4771 21.2434 69 17.189 69 12.5455C69 5.61679 63.3832 0 56.4545 0H12.5455C5.61679 0 0 5.61679 0 12.5455C0 17.189 2.52288 21.2434 6.27273 23.4126V56.4545C6.27273 59.9189 9.08112 62.7273 12.5455 62.7273H56.4545C59.9189 62.7273 62.7273 59.9189 62.7273 56.4545ZM56.4545 56.4545H12.5455V19.7945L9.41364 17.9828C7.48187 16.8654 6.27273 14.8141 6.27273 12.5455C6.27273 9.08112 9.08112 6.27273 12.5455 6.27273H56.4545C59.9189 6.27273 62.7273 9.08112 62.7273 12.5455C62.7273 14.8141 61.5181 16.8654 59.5864 17.9828L56.4545 19.7945V56.4545Z" fill="#FFAA00"/>
</svg>
