<svg width="15" height="15" viewBox="0 0 15 15" fill="none" xmlns="http://www.w3.org/2000/svg">
<path fill-rule="evenodd" clip-rule="evenodd" d="M6.25 9.375V10.625H3.75C2.02411 10.625 0.625 9.22589 0.625 7.5C0.625 5.77411 2.02411 4.375 3.75 4.375H6.25V5.625H3.75C2.71447 5.625 1.875 6.46447 1.875 7.5C1.875 8.53553 2.71447 9.375 3.75 9.375H6.25ZM8.75 5.625V4.375H11.25C12.9759 4.375 14.375 5.77411 14.375 7.5C14.375 9.22589 12.9759 10.625 11.25 10.625H8.75V9.375H11.25C12.2855 9.375 13.125 8.53553 13.125 7.5C13.125 6.46447 12.2855 5.625 11.25 5.625H8.75ZM10.625 6.875H4.375V8.125H10.625V6.875Z" fill="#B2B2B2"/>
</svg>
