<svg width="69" height="69" viewBox="0 0 69 69" fill="none" xmlns="http://www.w3.org/2000/svg">
<path fill-rule="evenodd" clip-rule="evenodd" d="M34.5 69C15.4462 69 0 53.5538 0 34.5C0 15.4462 15.4462 0 34.5 0C53.5538 0 69 15.4462 69 34.5C69 53.5538 53.5538 69 34.5 69ZM62.3125 39.3481C56.2486 37.9392 50.5789 37.5769 45.2854 38.269C47.923 44.7777 49.843 51.1457 51.043 57.3741C56.8788 53.1462 61.0331 46.7397 62.3125 39.3481ZM45.2509 60.6078C44.1249 53.8322 42.0625 46.8366 39.06 39.6224C30.6314 42.2296 23.2544 47.8509 16.843 56.5243C21.6778 60.4053 27.8178 62.7273 34.5 62.7273C38.3066 62.7273 41.9373 61.9738 45.2509 60.6078ZM12.3741 52.0296C8.55417 47.2146 6.27273 41.1237 6.27273 34.5C6.27273 33.878 6.29284 33.2608 6.33246 32.6489C6.45012 32.6505 6.57328 32.6523 6.70234 32.6541C16.5384 32.7947 22.6025 32.5456 29.5988 31.2666C31.3364 30.949 33.017 30.5751 34.6379 30.1421C35.2799 31.3876 35.8953 32.6269 36.484 33.86C27.3551 36.8625 19.2938 42.93 12.3741 52.0296ZM7.45482 26.391C16.5129 26.5054 22.1427 26.253 28.4707 25.0962C29.5225 24.9039 30.5472 24.6897 31.5444 24.453C28.708 19.4913 25.4607 14.4347 21.8012 9.28366C14.9455 12.743 9.6929 18.9158 7.45482 26.391ZM27.8996 7.0486C31.571 12.3038 34.8336 17.4777 37.6864 22.5706C43.6981 20.2459 48.3644 16.7909 51.544 11.9974C46.808 8.40465 40.903 6.27273 34.5 6.27273C32.2271 6.27273 30.017 6.54136 27.8996 7.0486ZM56.1443 16.3798C59.9545 20.9262 62.3588 26.6909 62.6884 33.0049C55.5937 31.4759 48.9216 31.2501 42.6924 32.3187C42.047 30.9334 41.37 29.542 40.6614 28.1444C47.125 25.5287 52.3585 21.6875 56.1443 16.3798Z" fill="#FFAA00"/>
</svg>
