<svg width="63" height="63" viewBox="0 0 63 63" fill="none" xmlns="http://www.w3.org/2000/svg">
<path fill-rule="evenodd" clip-rule="evenodd" d="M34.65 31.1849V53.55H28.35V31.1849C21.1609 29.7256 15.75 23.3697 15.75 15.75C15.75 7.05152 22.8015 0 31.5 0C40.1985 0 47.25 7.05152 47.25 15.75C47.25 23.3697 41.8391 29.7256 34.65 31.1849ZM22.05 38.2955V44.6807C12.8116 45.834 6.3 48.4682 6.3 50.4C6.3 52.9419 17.5743 56.7 31.5 56.7C45.4257 56.7 56.7 52.9419 56.7 50.4C56.7 48.4682 50.1884 45.834 40.95 44.6807V38.2955C53.726 39.6954 63 43.9986 63 50.4C63 58.2962 48.8888 63 31.5 63C14.1112 63 0 58.2962 0 50.4C0 43.9986 9.27399 39.6954 22.05 38.2955ZM40.95 15.75C40.95 20.9691 36.7191 25.2 31.5 25.2C26.2809 25.2 22.05 20.9691 22.05 15.75C22.05 10.5309 26.2809 6.3 31.5 6.3C36.7191 6.3 40.95 10.5309 40.95 15.75Z" fill="#FFAA00"/>
</svg>
