<svg width="47" height="47" viewBox="0 0 47 47" fill="none" xmlns="http://www.w3.org/2000/svg">
<path fill-rule="evenodd" clip-rule="evenodd" d="M23.5 47C10.5213 47 0 36.4787 0 23.5C0 10.5213 10.5213 0 23.5 0C36.4787 0 47 10.5213 47 23.5C47 36.4787 36.4787 47 23.5 47ZM23.5 42.7273C34.1189 42.7273 42.7273 34.1189 42.7273 23.5C42.7273 12.8811 34.1189 4.27273 23.5 4.27273C12.8811 4.27273 4.27273 12.8811 4.27273 23.5C4.27273 34.1189 12.8811 42.7273 23.5 42.7273ZM34.1818 21.3636H25.6364V12.8182H21.3636V21.3636H12.8182V25.6364H21.3636V34.1818H25.6364V25.6364H34.1818V21.3636Z" fill="white"/>
</svg>
